<svg xmlns="http://www.w3.org/2000/svg" viewBox="0 0 500 500"><g id="freepik--background-complete--inject-34"><rect x="416.78" y="398.49" width="33.12" height="0.25" style="fill:#ebebeb"></rect><rect x="322.53" y="401.21" width="8.69" height="0.25" style="fill:#ebebeb"></rect><rect x="396.59" y="389.21" width="19.19" height="0.25" style="fill:#ebebeb"></rect><rect x="52.46" y="390.89" width="43.19" height="0.25" style="fill:#ebebeb"></rect><rect x="104.56" y="390.89" width="6.33" height="0.25" style="fill:#ebebeb"></rect><rect x="131.47" y="395.11" width="93.68" height="0.25" style="fill:#ebebeb"></rect><path d="M237,337.8H43.92a5.71,5.71,0,0,1-5.71-5.71V60.66A5.71,5.71,0,0,1,43.92,55H237a5.71,5.71,0,0,1,5.71,5.71V332.09A5.71,5.71,0,0,1,237,337.8ZM43.92,55.2a5.47,5.47,0,0,0-5.46,5.46V332.09a5.47,5.47,0,0,0,5.46,5.46H237a5.47,5.47,0,0,0,5.46-5.46V60.66A5.47,5.47,0,0,0,237,55.2Z" style="fill:#ebebeb"></path><path d="M453.31,337.8H260.21a5.72,5.72,0,0,1-5.71-5.71V60.66A5.72,5.72,0,0,1,260.21,55h193.1A5.71,5.71,0,0,1,459,60.66V332.09A5.71,5.71,0,0,1,453.31,337.8ZM260.21,55.2a5.47,5.47,0,0,0-5.46,5.46V332.09a5.47,5.47,0,0,0,5.46,5.46h193.1a5.47,5.47,0,0,0,5.46-5.46V60.66a5.47,5.47,0,0,0-5.46-5.46Z" style="fill:#ebebeb"></path><rect y="382.4" width="500" height="0.25" style="fill:#ebebeb"></rect><path d="M242.7,320.17c-38.15-7.82-74.81-45.71-102.17-24.41-31.78,24.74-60.44,25.78-60.44,25.78,65.8,0,59.47-41.84,103.76-17.46,22.09,12.15,45.05,15.91,58.85,17Z" style="fill:#ebebeb"></path><path d="M378.06,307.21c-38.15-7.82-74.82-45.71-102.18-24.41-31.78,24.74-60.43,25.79-60.43,25.79,65.79,0,59.46-41.85,103.75-17.47,22.09,12.15,45.06,15.91,58.86,17Z" style="fill:#ebebeb"></path><path d="M372.26,286.84,389.9,298,388,284.66l20.59,11.66c-11.33-15.94-21.92-37.94-30.52-58.49l-.44-3.05,13.69,7.75c-8-11.25-15.44-27-21.33-41.4l4.15,2.63-1-6.94,10.71,6.06c-6.9-9.71-13.28-23.75-18.08-35.83V167l5.79,3.28c-7.88-11.09-14.5-32.61-14.5-32.61s-6.62,21.52-14.51,32.61l5.8-3.28v.08c-4.81,12.08-11.18,26.12-18.09,35.83L341,196.82l-1,6.94,4.16-2.63c-5.9,14.36-13.34,30.15-21.34,41.4l13.69-7.75-.43,3.05c-8.61,20.55-19.2,42.55-30.53,58.49l20.59-11.66L324.21,298l17.65-11.17,3.52,15.51,3.82-5.07-4.43,49.79s-7.91,1.08-10.16,2.25c-1.68.88-4.36,6.22-4.36,6.22s1.49.21,3.12.31h0l1.08,0h.06c.34,0,.68,0,1,0h.07a6.79,6.79,0,0,0,.86-.1h.05a2.85,2.85,0,0,0,.66-.21c.89-.46,1.85-2.62,2.82-2.83,1.93-.41,5.45,2.3,7.35,2.83l.88.21a29.81,29.81,0,0,0,3.2.49c.4.05.8.08,1.21.11,1.24.1,2.54.16,3.83.17s2.6,0,3.83-.12a23.6,23.6,0,0,0,5.26-.86c.23-.08.49-.19.77-.32,1.12-.51,2.56-1.37,3.9-2a4.81,4.81,0,0,1,2.67-.56,1.38,1.38,0,0,1,.4.18,5.45,5.45,0,0,1,.92.81,17.74,17.74,0,0,1,1.5,1.84h6.9s-2.67-5.34-4.35-6.22c-2.26-1.17-10.17-2.25-10.17-2.25l-4.6-51.71,5.26,7Z" style="fill:#f5f5f5"></path><path d="M111.82,305.58l16.89,10.69-1.82-12.77,19.71,11.16c-10.84-15.26-21-36.32-29.22-56l-.42-2.92,13.11,7.42c-7.66-10.77-14.78-25.89-20.43-39.64l4,2.52-1-6.64,10.26,5.8c-6.61-9.3-12.72-22.74-17.32-34.31v-.07l5.55,3.14c-7.55-10.62-13.89-31.22-13.89-31.22S90.92,183.34,83.38,194l5.54-3.14v.07c-4.59,11.57-10.7,25-17.31,34.31l10.25-5.8L80.91,226l4-2.52c-5.64,13.75-12.77,28.87-20.42,39.64l13.1-7.42-.41,2.92c-8.24,19.68-18.38,40.74-29.23,56L67.63,303.5l-1.82,12.77,16.9-10.69,3.38,14.85,3.65-4.85L85.5,363.24s-7.57,1-9.73,2.17c-1.61.83-4.17,5.94-4.17,5.94s1.42.21,3,.3h0l1,0h.06c.33,0,.65,0,.95,0h.07c.3,0,.58-.05.83-.09h0a2.21,2.21,0,0,0,.63-.21c.85-.44,1.77-2.5,2.71-2.7,1.84-.39,5.21,2.2,7,2.7a8.58,8.58,0,0,0,.84.21,30.4,30.4,0,0,0,3.07.47l1.16.11c1.18.09,2.42.14,3.67.15s2.48,0,3.66-.11a22.37,22.37,0,0,0,5-.83,5.91,5.91,0,0,0,.74-.29c1.08-.5,2.45-1.32,3.73-1.88a4.66,4.66,0,0,1,2.56-.53,1.59,1.59,0,0,1,.39.17,5.82,5.82,0,0,1,.88.77,18.75,18.75,0,0,1,1.44,1.76h6.6s-2.56-5.11-4.17-5.94c-2.16-1.13-9.73-2.17-9.73-2.17l-4.4-49.5,5,6.69Z" style="fill:#f5f5f5"></path><path d="M427.59,332.11,438.43,339l-1.17-8.19,12.64,7.16c-6.95-9.79-13.46-23.3-18.74-35.91l-.27-1.88,8.41,4.76c-4.91-6.91-9.48-16.6-13.1-25.42l2.55,1.61-.61-4.26,6.58,3.73c-4.24-6-8.16-14.59-11.11-22v-.05l3.55,2c-4.84-6.81-8.9-20-8.9-20s-4.07,13.22-8.91,20l3.56-2v.05c-2.95,7.42-6.86,16-11.1,22l6.57-3.73-.6,4.26,2.55-1.61c-3.62,8.82-8.19,18.51-13.1,25.42l8.4-4.76-.26,1.88c-5.29,12.61-11.79,26.12-18.75,35.91l12.64-7.16L398.09,339l10.83-6.85,2.17,9.52,2.34-3.11-2.72,30.57s-4.85.67-6.24,1.39c-1,.53-2.67,3.81-2.67,3.81s.91.13,1.91.19h0l.67,0h0l.61,0h.05a4.08,4.08,0,0,0,.53-.06h0a1.25,1.25,0,0,0,.4-.13c.55-.28,1.14-1.61,1.74-1.73,1.18-.25,3.34,1.41,4.51,1.73a5.38,5.38,0,0,0,.54.13,17.81,17.81,0,0,0,2,.31l.74.06c.75.06,1.55.1,2.35.1s1.59,0,2.35-.07a14.37,14.37,0,0,0,3.23-.53c.14-.05.3-.11.47-.19.69-.32,1.57-.85,2.39-1.2a2.91,2.91,0,0,1,1.65-.34.57.57,0,0,1,.24.11,3,3,0,0,1,.57.49,11,11,0,0,1,.92,1.13h4.24s-1.65-3.28-2.68-3.81c-1.38-.72-6.24-1.39-6.24-1.39l-2.82-31.75,3.23,4.29Z" style="fill:#f5f5f5"></path><path d="M214,172.59c-7.05-18.76-14.7-5.27-14.7-5.27A24.36,24.36,0,0,0,181.61,147c-9.08-2.64-11.62,1-12.09,4.83a25.57,25.57,0,0,0-7.73-3.66c-16.36-4.76-11.51,16.59-11.51,16.59s-16.1-11.07-17.77.11,4.31,10.54,8.79,11.45c2.95.59,12,.23,12,.23a23.59,23.59,0,0,0,20.38.92l1.19-.51s1.35.2,3.25.41a23.63,23.63,0,0,0,15.37-1.06l1.2-.51S218.11,183.59,214,172.59Z" style="fill:#f5f5f5"></path><path d="M408.07,123.4c-8.85-23.55-18.46-6.62-18.46-6.62S388,97.26,367.43,91.29C356,88,352.85,92.59,352.25,97.35a32.26,32.26,0,0,0-9.7-4.6c-20.54-6-14.45,20.83-14.45,20.83s-20.22-13.9-22.31.15,5.41,13.23,11,14.37c3.7.75,15.09.29,15.09.29a29.63,29.63,0,0,0,25.58,1.16l1.5-.64s1.7.25,4.08.51a29.65,29.65,0,0,0,19.31-1.34l1.5-.63S413.27,137.22,408.07,123.4Z" style="fill:#f5f5f5"></path><path d="M163.37,145c-5.26-14-11-3.93-11-3.93a18.14,18.14,0,0,0-13.16-15.13c-6.76-2-8.66.77-9,3.6a19.26,19.26,0,0,0-5.76-2.73c-12.19-3.55-8.58,12.36-8.58,12.36s-12-8.25-13.24.09,3.21,7.85,6.55,8.53c2.2.44,9,.17,9,.17a17.58,17.58,0,0,0,15.18.69l.89-.38s1,.15,2.43.3a17.56,17.56,0,0,0,11.45-.79l.89-.38S166.45,153.18,163.37,145Z" style="fill:#f0f0f0"></path><path d="M329.56,174.34c-5.26-14-11-3.92-11-3.92a18.15,18.15,0,0,0-13.16-15.14c-6.76-2-8.66.77-9,3.6a19.26,19.26,0,0,0-5.76-2.73c-12.19-3.54-8.58,12.37-8.58,12.37s-12-8.26-13.24.08,3.21,7.86,6.55,8.53c2.2.45,9,.17,9,.17a17.58,17.58,0,0,0,15.18.69l.89-.38s1,.15,2.42.3a17.52,17.52,0,0,0,11.46-.79l.89-.38S332.64,182.54,329.56,174.34Z" style="fill:#f0f0f0"></path></g><g id="freepik--Shadow--inject-34"><ellipse id="freepik--path--inject-34" cx="245.18" cy="412.39" rx="193.89" ry="11.32" style="fill:#f5f5f5"></ellipse></g><g id="freepik--Plants--inject-34"><path d="M420.93,365.09c-2-1-9-2-9-2l-5.5-61.86h-9.62l-5.5,61.86s-7,1-9,2c-1.49.78-3.86,5.5-3.86,5.5s4.75.7,6.11,0c.78-.41,1.63-2.32,2.5-2.5,1.7-.36,4.82,2,6.5,2.5,3.88,1.07,12.29,1.24,16.12,0,1.66-.53,4.8-2.86,6.5-2.5.87.18,2.5,2.5,2.5,2.5h6.11S422.42,365.87,420.93,365.09Z" style="fill:#263238"></path><path d="M420.93,365.09c-2-1-9-2-9-2l-5.5-61.86h-9.62l-5.5,61.86s-7,1-9,2c-1.49.78-3.86,5.5-3.86,5.5s4.75.7,6.11,0c.78-.41,1.63-2.32,2.5-2.5,1.7-.36,4.82,2,6.5,2.5,3.88,1.07,12.29,1.24,16.12,0,1.66-.53,4.8-2.86,6.5-2.5.87.18,2.5,2.5,2.5,2.5h6.11S422.42,365.87,420.93,365.09Z" style="fill:#fff;opacity:0.6000000000000001"></path><path d="M419.18,366.34a8.93,8.93,0,0,0-3.87-1.25,19.47,19.47,0,0,0-3.38.5v-2.5l-5.5-61.86h-6.06l-1.56,25.61,2.81-2.25-1.41,28.25h2s-.12,10.12-1.69,13a13.84,13.84,0,0,1-2.93,2.5s-5.91-2.55-8-2.5a14.58,14.58,0,0,0-6.75,2.5,9.47,9.47,0,0,0-1.6,2.53,8.25,8.25,0,0,0,3.35-.28c.78-.41,1.63-2.32,2.5-2.5,1.7-.36,4.82,2,6.5,2.5,3.88,1.07,12.29,1.24,16.12,0,1.66-.53,4.8-2.86,6.5-2.5.87.18,2.5,2.5,2.5,2.5h2.86C420.89,369,420,367,419.18,366.34Z" style="opacity:0.1"></path><path d="M447.81,318.17c-24.8-34.9-45.63-102.58-45.63-102.58s-20.83,67.68-45.62,102.58l18.22-10.32-1.68,11.81,15.62-9.89,3.13,13.73,10.33-13.73,10.34,13.73,3.12-13.73,15.62,9.89-1.68-11.81Z" style="fill:#FFFFFF"></path><path d="M447.81,318.17c-24.8-34.9-45.63-102.58-45.63-102.58s-20.83,67.68-45.62,102.58l18.22-10.32-1.68,11.81,15.62-9.89,3.13,13.73,10.33-13.73,10.34,13.73,3.12-13.73,15.62,9.89-1.68-11.81Z" style="fill:#fff;opacity:0.30000000000000004"></path><path d="M432.52,270.54c-16.49-23.2-30.34-68.2-30.34-68.2s-13.85,45-30.33,68.2L384,263.68l-1.11,7.85L393.23,265l2.08,9.13,6.87-9.13,6.87,9.13,2.08-9.13,10.39,6.57-1.12-7.85Z" style="fill:#FFFFFF"></path><path d="M432.52,270.54c-16.49-23.2-30.34-68.2-30.34-68.2s-13.85,45-30.33,68.2L384,263.68l-1.11,7.85L393.23,265l2.08,9.13,6.87-9.13,6.87,9.13,2.08-9.13,10.39,6.57-1.12-7.85Z" style="fill:#fff;opacity:0.4"></path><path d="M425.91,235.44c-12.89-18.15-23.73-53.35-23.73-53.35s-10.83,35.2-23.73,53.35l9.48-5.37-.87,6.15,8.12-5.15,1.63,7.15,5.37-7.15,5.38,7.15,1.62-7.15,8.13,5.15-.88-6.15Z" style="fill:#FFFFFF"></path><path d="M425.91,235.44c-12.89-18.15-23.73-53.35-23.73-53.35s-10.83,35.2-23.73,53.35l9.48-5.37-.87,6.15,8.12-5.15,1.63,7.15,5.37-7.15,5.38,7.15,1.62-7.15,8.13,5.15-.88-6.15Z" style="fill:#fff;opacity:0.5"></path><path d="M415,206.55c-7-9.82-12.84-28.87-12.84-28.87s-5.86,19-12.84,28.87l5.13-2.9L394,207l4.39-2.78.88,3.86,2.91-3.86,2.91,3.86.88-3.86,4.4,2.78-.48-3.32Z" style="fill:#FFFFFF"></path><path d="M415,206.55c-7-9.82-12.84-28.87-12.84-28.87s-5.86,19-12.84,28.87l5.13-2.9L394,207l4.39-2.78.88,3.86,2.91-3.86,2.91,3.86.88-3.86,4.4,2.78-.48-3.32Z" style="fill:#fff;opacity:0.6000000000000001"></path><path d="M98.86,372.06c-1.57-.81-7.08-1.57-7.08-1.57l-4.33-48.65H79.88l-4.32,48.65s-5.51.76-7.08,1.57c-1.18.61-3,4.33-3,4.33s3.74.55,4.81,0c.61-.32,1.28-1.82,2-2,1.34-.28,3.79,1.61,5.11,2,3.06.84,9.67,1,12.69,0,1.3-.42,3.77-2.25,5.11-2,.68.15,2,2,2,2h4.8S100,372.67,98.86,372.06Z" style="fill:#263238"></path><path d="M98.86,372.06c-1.57-.81-7.08-1.57-7.08-1.57l-4.33-48.65H79.88l-4.32,48.65s-5.51.76-7.08,1.57c-1.18.61-3,4.33-3,4.33s3.74.55,4.81,0c.61-.32,1.28-1.82,2-2,1.34-.28,3.79,1.61,5.11,2,3.06.84,9.67,1,12.69,0,1.3-.42,3.77-2.25,5.11-2,.68.15,2,2,2,2h4.8S100,372.67,98.86,372.06Z" style="fill:#fff;opacity:0.6000000000000001"></path><path d="M97.48,373.05a7,7,0,0,0-3-1,15.51,15.51,0,0,0-2.65.4v-2l-4.33-48.65H82.68L81.45,342l2.22-1.77-1.11,22.22h1.55s-.1,8-1.33,10.22a10.84,10.84,0,0,1-2.31,2s-4.64-2-6.29-2a11.47,11.47,0,0,0-5.31,2,7.8,7.8,0,0,0-1.26,2,6.58,6.58,0,0,0,2.64-.22c.61-.32,1.28-1.82,2-2,1.34-.28,3.79,1.61,5.11,2,3.06.84,9.67,1,12.69,0,1.3-.42,3.77-2.25,5.11-2,.68.15,2,2,2,2h2.24A11.2,11.2,0,0,0,97.48,373.05Z" style="opacity:0.1"></path><path d="M120,335.16c-19.51-27.45-35.89-80.69-35.89-80.69s-16.39,53.24-35.89,80.69L62.56,327l-1.32,9.29,12.28-7.78L76,339.35l8.13-10.8,8.13,10.8,2.45-10.8L107,336.33,105.66,327Z" style="fill:#FFFFFF"></path><path d="M120,335.16c-19.51-27.45-35.89-80.69-35.89-80.69s-16.39,53.24-35.89,80.69L62.56,327l-1.32,9.29,12.28-7.78L76,339.35l8.13-10.8,8.13,10.8,2.45-10.8L107,336.33,105.66,327Z" style="fill:#fff;opacity:0.30000000000000004"></path><path d="M108,297.7c-13-18.25-23.86-53.65-23.86-53.65s-10.9,35.4-23.86,53.65l9.53-5.4-.88,6.18,8.17-5.18,1.63,7.19,5.41-7.19,5.4,7.19,1.64-7.19,8.17,5.18-.88-6.18Z" style="fill:#FFFFFF"></path><path d="M108,297.7c-13-18.25-23.86-53.65-23.86-53.65s-10.9,35.4-23.86,53.65l9.53-5.4-.88,6.18,8.17-5.18,1.63,7.19,5.41-7.19,5.4,7.19,1.64-7.19,8.17,5.18-.88-6.18Z" style="fill:#fff;opacity:0.4"></path><path d="M102.77,270.09c-10.14-14.28-18.66-42-18.66-42s-8.52,27.69-18.67,42l7.46-4.23-.69,4.84,6.39-4.05,1.28,5.62,4.23-5.62,4.23,5.62,1.27-5.62L96,270.7l-.69-4.84Z" style="fill:#FFFFFF"></path><path d="M102.77,270.09c-10.14-14.28-18.66-42-18.66-42s-8.52,27.69-18.67,42l7.46-4.23-.69,4.84,6.39-4.05,1.28,5.62,4.23-5.62,4.23,5.62,1.27-5.62L96,270.7l-.69-4.84Z" style="fill:#fff;opacity:0.5"></path><path d="M94.21,247.36c-5.49-7.72-10.1-22.71-10.1-22.71s-4.61,15-10.1,22.71l4-2.28-.37,2.61,3.46-2.19.69,3,2.29-3,2.29,3,.69-3,3.46,2.19-.38-2.61Z" style="fill:#FFFFFF"></path><path d="M94.21,247.36c-5.49-7.72-10.1-22.71-10.1-22.71s-4.61,15-10.1,22.71l4-2.28-.37,2.61,3.46-2.19.69,3,2.29-3,2.29,3,.69-3,3.46,2.19-.38-2.61Z" style="fill:#fff;opacity:0.6000000000000001"></path></g><g id="freepik--Field--inject-34"><path d="M304.51,272.54a1.45,1.45,0,1,0-2.89,0,1.42,1.42,0,0,0,.74,1.25v74.79h1.41V273.79A1.42,1.42,0,0,0,304.51,272.54Z" style="fill:#263238"></path><path d="M304.51,272.54a1.45,1.45,0,1,0-2.89,0,1.42,1.42,0,0,0,.74,1.25v74.79h1.41V273.79A1.42,1.42,0,0,0,304.51,272.54Z" style="fill:#fff;opacity:0.5"></path><path d="M302.36,276h1.41s4.69-1.57,7.51,1.41,8.13,1,8.13,1-2.5,7.32-7.58,5-8.06.39-8.06.39h-1.41Z" style="fill:#FFFFFF"></path><path d="M310.58,282.85a11.71,11.71,0,0,1,1.25.48l.23.1V278a5.27,5.27,0,0,1-.78-.65,5.76,5.76,0,0,0-.45-.42Z" style="opacity:0.1"></path><path d="M43,383.42C61.74,374.88,108.19,356,152.24,356c41.59,0,86.17,17.84,107.16,27.44Z" style="fill:#FFFFFF"></path><path d="M43,383.42C61.74,374.88,108.19,356,152.24,356c41.59,0,86.17,17.84,107.16,27.44Z" style="fill:#fff;opacity:0.4"></path><path d="M220.54,383.42H259.4c-21-9.6-65.57-27.44-107.16-27.44C152.24,356,253,381.63,220.54,383.42Z" style="fill:#fff;opacity:0.4"></path><path d="M144.94,383.42c26.87-12.29,93.44-39.48,156.55-39.48,59.59,0,123.45,25.66,153.53,39.48Z" style="fill:#FFFFFF"></path><path d="M144.94,383.42c26.87-12.29,93.44-39.48,156.55-39.48,59.59,0,123.45,25.66,153.53,39.48Z" style="fill:#fff;opacity:0.6000000000000001"></path><path d="M399.34,383.42H455c-30.08-13.82-93.95-39.48-153.53-39.48C301.49,343.94,460.51,376.18,399.34,383.42Z" style="fill:#fff;opacity:0.5"></path></g><g id="freepik--golf-cart--inject-34"><path d="M198.33,337.83,183.41,337a1.71,1.71,0,0,1-1.6-1.7v-1.33a1.7,1.7,0,0,1,1.7-1.7h14.92a1.68,1.68,0,0,1,1.67,1.68v2.24A1.67,1.67,0,0,1,198.33,337.83Z" style="fill:#FFFFFF"></path><path d="M200.09,312.42h.2a.47.47,0,0,1,.47.47v19.68a.47.47,0,0,1-.47.47h-.2a1.85,1.85,0,0,1-1.85-1.85V314.28A1.85,1.85,0,0,1,200.09,312.42Z" transform="translate(28.03 -15.73) rotate(4.85)" style="fill:#FFFFFF"></path><path d="M191,327.31l.53.28L193.3,326l5.36-1.82h0a.94.94,0,0,0-1-.93,13.43,13.43,0,0,0-6.75,2.57A.94.94,0,0,0,191,327.31Z" style="fill:#FFFFFF"></path><path d="M152.48,328.65c0-4.53,2-7.48,4.33-11l8-12.09c2-3,3.91-6.1,6-9,2.24-3.15,5.06-3.19,8.43-3.19h27c2.76,0,6.82-.53,6.52,3.58-.25,3.23-.88,6.49-1.31,9.71q-1.71,12.74-3.43,25.46c-.1.76,1.06,1.08,1.16.32q1.63-12.12,3.26-24.25c.49-3.64,1.06-7.28,1.47-10.93.36-3.23-1.6-5-4.71-5.08-9.23-.12-18.47,0-27.69,0-3.21,0-7-.55-9.76,1.5-2.38,1.79-4,5.22-5.59,7.64L156.45,316c-2.69,4-5.17,7.47-5.17,12.61a.6.6,0,0,0,1.2,0Z" style="fill:#263238"></path><g style="opacity:0.30000000000000004"><path d="M152.48,328.65c0-4.53,2-7.48,4.33-11l8-12.09c2-3,3.91-6.1,6-9,2.24-3.15,5.06-3.19,8.43-3.19h27c2.76,0,6.82-.53,6.52,3.58-.25,3.23-.88,6.49-1.31,9.71q-1.71,12.74-3.43,25.46c-.1.76,1.06,1.08,1.16.32q1.63-12.12,3.26-24.25c.49-3.64,1.06-7.28,1.47-10.93.36-3.23-1.6-5-4.71-5.08-9.23-.12-18.47,0-27.69,0-3.21,0-7-.55-9.76,1.5-2.38,1.79-4,5.22-5.59,7.64L156.45,316c-2.69,4-5.17,7.47-5.17,12.61a.6.6,0,0,0,1.2,0Z" style="fill:#fff"></path></g><path d="M188.31,338.44c.56-2.23,1.1-4.46,1.68-6.68a8.27,8.27,0,0,1,6.65-6.56c4.52-1,9.07-1.88,13.61-2.81.5-.11.29-.88-.21-.77-4.73,1-9.54,1.78-14.23,2.94-6.43,1.58-6.91,8.26-8.27,13.66-.12.5.65.71.77.22Z" style="fill:#263238"></path><g style="opacity:0.30000000000000004"><path d="M188.31,338.44c.56-2.23,1.1-4.46,1.68-6.68a8.27,8.27,0,0,1,6.65-6.56c4.52-1,9.07-1.88,13.61-2.81.5-.11.29-.88-.21-.77-4.73,1-9.54,1.78-14.23,2.94-6.43,1.58-6.91,8.26-8.27,13.66-.12.5.65.71.77.22Z" style="fill:#fff"></path></g><path d="M225.41,336.28h-.91v-10.9a2.93,2.93,0,0,0-2.93-2.93H209.88v-.9h11.69a3.84,3.84,0,0,1,3.84,3.83Z" style="fill:#263238"></path><g style="opacity:0.30000000000000004"><path d="M225.41,336.28h-.91v-10.9a2.93,2.93,0,0,0-2.93-2.93H209.88v-.9h11.69a3.84,3.84,0,0,1,3.84,3.83Z" style="fill:#fff"></path></g><path d="M171.14,319l-6.94-4.46a.53.53,0,0,1-.16-.74h0a.54.54,0,0,1,.74-.16l6.93,4.47a.52.52,0,0,1,.16.73h0A.52.52,0,0,1,171.14,319Z" style="fill:#263238"></path><rect x="155.3" y="322.52" width="16.43" height="1.33" transform="translate(-196.75 285.78) rotate(-57.24)" style="fill:#263238"></rect><path d="M181.68,348.27v-7.61a3.21,3.21,0,0,1,2.17-3l17.94-6.13a3.12,3.12,0,0,1,1-.18h17.69a3.22,3.22,0,0,1,2.27.94l2,2a3.22,3.22,0,0,1,.94,2.27v10a1.79,1.79,0,0,1-1.79,1.78Z" style="fill:#FFFFFF"></path><path d="M181.68,348.27v-7.61a3.21,3.21,0,0,1,2.17-3l17.94-6.13a3.12,3.12,0,0,1,1-.18h17.69a3.22,3.22,0,0,1,2.27.94l2,2a3.22,3.22,0,0,1,.94,2.27v10a1.79,1.79,0,0,1-1.79,1.78Z" style="fill:#fff;opacity:0.6000000000000001"></path><path d="M167.44,348.27l-5.14-16.62a4.32,4.32,0,0,0-3.69-3l-9.36-1a4.31,4.31,0,0,0-3.19.94c-2.79,2.3-8.18,8.35-6.28,19.7Z" style="fill:#FFFFFF"></path><path d="M167.44,348.27l-5.14-16.62a4.32,4.32,0,0,0-3.69-3l-9.36-1a4.31,4.31,0,0,0-3.19.94c-2.79,2.3-8.18,8.35-6.28,19.7Z" style="fill:#fff;opacity:0.6000000000000001"></path><path d="M212.56,292.74H173.44a.56.56,0,0,1-.3-1l.77-.49a5.59,5.59,0,0,1,3-.89h32.25a5.57,5.57,0,0,1,3.74,1.44h0A.55.55,0,0,1,212.56,292.74Z" style="fill:#FFFFFF"></path><path d="M212.56,292.74H173.44a.56.56,0,0,1-.3-1l.77-.49a5.59,5.59,0,0,1,3-.89h32.25a5.57,5.57,0,0,1,3.74,1.44h0A.55.55,0,0,1,212.56,292.74Z" style="fill:#fff;opacity:0.6000000000000001"></path><rect x="138.45" y="347.01" width="85" height="2.53" rx="1.16" style="fill:#263238"></rect><rect x="138.45" y="347.01" width="85" height="2.53" rx="1.16" style="fill:#fff;opacity:0.30000000000000004"></rect><polygon points="161.77 347.35 160.66 344.07 158 340.82 152.9 338.72 148.11 338.72 143.54 341.56 140.48 346.79 139.98 349.54 162.07 349.54 161.77 347.35" style="fill:#FFFFFF"></polygon><circle cx="151.08" cy="349.54" r="8.72" transform="translate(-202.91 209.21) rotate(-45)" style="fill:#263238"></circle><path d="M141,349.54a10.11,10.11,0,1,1,20.21,0c0,1,1.63,1,1.59,0a11.7,11.7,0,1,0-23.4,0c0,1,1.57,1,1.6,0Z" style="fill:#FFFFFF"></path><g style="opacity:0.4"><path d="M141,349.54a10.11,10.11,0,1,1,20.21,0c0,1,1.63,1,1.59,0a11.7,11.7,0,1,0-23.4,0c0,1,1.57,1,1.6,0Z" style="fill:#fff"></path></g><path d="M157.3,349.54a6.22,6.22,0,1,1-6.22-6.22A6.22,6.22,0,0,1,157.3,349.54Z" style="fill:#fff;opacity:0.5"></path><path d="M153.27,349.54a2.19,2.19,0,1,1-2.19-2.19A2.19,2.19,0,0,1,153.27,349.54Z" style="fill:#FFFFFF"></path><path d="M203.3,349.54a10.1,10.1,0,1,1,20.2,0c0,1,1.63,1,1.6,0a11.7,11.7,0,1,0-23.4,0c0,1,1.56,1,1.6,0Z" style="fill:#FFFFFF"></path><polygon points="224.14 347.35 223.04 344.07 220.38 340.82 215.28 338.72 210.49 338.72 205.92 341.56 202.86 346.79 202.36 349.54 224.44 349.54 224.14 347.35" style="fill:#FFFFFF"></polygon><g style="opacity:0.4"><path d="M203.3,349.54a10.1,10.1,0,1,1,20.2,0c0,1,1.63,1,1.6,0a11.7,11.7,0,1,0-23.4,0c0,1,1.56,1,1.6,0Z" style="fill:#fff"></path></g><circle cx="213.4" cy="349.54" r="8.72" transform="translate(-184.66 253.27) rotate(-45)" style="fill:#263238"></circle><path d="M219.62,349.54a6.22,6.22,0,1,1-6.22-6.22A6.23,6.23,0,0,1,219.62,349.54Z" style="fill:#fff;opacity:0.5"></path><path d="M215.59,349.54a2.19,2.19,0,1,1-2.19-2.19A2.19,2.19,0,0,1,215.59,349.54Z" style="fill:#FFFFFF"></path></g><g id="freepik--golf-bag--inject-34"><path d="M76.76,407.28l32.25-60-5.19,60.38a1.58,1.58,0,1,1-2.6,1.2,1.55,1.55,0,0,1,.8-1.34l4.44-51.67-28.1,52.31a1.65,1.65,0,0,1,.18.7,1.59,1.59,0,1,1-1.78-1.55Z" style="fill:#263238"></path><path d="M76.76,407.28l32.25-60-5.19,60.38a1.58,1.58,0,1,1-2.6,1.2,1.55,1.55,0,0,1,.8-1.34l4.44-51.67-28.1,52.31a1.65,1.65,0,0,1,.18.7,1.59,1.59,0,1,1-1.78-1.55Z" style="fill:#fff;opacity:0.30000000000000004"></path><path d="M107.38,343.44s-.31,7.07.36,9.3c3.91,13,23.73,42,32.28,54.21a7.27,7.27,0,0,0,9.73,2l10.32-6.26a7.27,7.27,0,0,0,2.7-9.56c-6.84-13.21-23.39-44.2-33.14-53.7-1.67-1.62-8.08-4.61-8.08-4.61Z" style="fill:#263238"></path><path d="M145.13,360.07l-7,1.29a3.71,3.71,0,0,0-1.16.44h0a3.43,3.43,0,0,0-1.15,4.72l13.78,22.73a6.42,6.42,0,0,0,8.83,2.16l.59-.36a6.43,6.43,0,0,0,2.17-8.83l-12.46-20.55A3.45,3.45,0,0,0,145.13,360.07Z" style="fill:#FFFFFF"></path><g style="opacity:0.5"><path d="M147.43,364c-.94-1.23-2.52-.59-3.75-.36a19,19,0,0,0-2.92.54c-2.91,1,0,4.4,1,5.95a.9.9,0,0,1-1.54.94c-1.46-2.4-4.72-6.74-.48-8.46a24.1,24.1,0,0,1,4.71-.93c1.86-.34,3.34-.24,4.56,1.39.7.92-.85,1.85-1.54.93Z" style="fill:#fff"></path></g><polygon points="137.6 377.1 141.21 377.99 141.66 371.07 140.4 370.76 137.6 377.1" style="fill:#263238"></polygon><polygon points="137.6 377.1 141.21 377.99 141.66 371.07 140.4 370.76 137.6 377.1" style="fill:#fff;opacity:0.30000000000000004"></polygon><path d="M111,361.83l4.39-5.65a3.45,3.45,0,0,1,.93-.82h0a3.43,3.43,0,0,1,4.72,1.15L146.17,398c1.84,3-.38,4.92-3.41,6.76l-.6.37c-3,1.84-5.74,2.93-7.58-.11l-23.83-39.3A3.42,3.42,0,0,1,111,361.83Z" style="fill:#FFFFFF"></path><g style="opacity:0.5"><path d="M113.36,365.66c-.67-1.4.64-2.5,1.41-3.49a19.9,19.9,0,0,1,1.82-2.35c2.25-2.1,3.9,2.06,4.84,3.61a.9.9,0,0,0,1.54-.93c-1.45-2.4-3.79-7.31-7.27-4.34a23.79,23.79,0,0,0-3,3.75c-1.16,1.48-1.75,2.85-.88,4.68.5,1.05,2,.11,1.55-.93Z" style="fill:#fff"></path></g><polygon points="122.84 370.07 119.23 369.19 122.03 362.84 123.29 363.15 122.84 370.07" style="fill:#263238"></polygon><polygon points="122.84 370.07 119.23 369.19 122.03 362.84 123.29 363.15 122.84 370.07" style="fill:#fff;opacity:0.30000000000000004"></polygon><polygon points="125.72 394.46 122.93 393.78 125.09 388.87 126.07 389.11 125.72 394.46" style="fill:#263238"></polygon><polygon points="125.72 394.46 122.93 393.78 125.09 388.87 126.07 389.11 125.72 394.46" style="fill:#fff;opacity:0.30000000000000004"></polygon><g style="opacity:0.5"><path d="M134.57,383.31q-3.81,2.91-7.64,5.8c-.92.7-1.85-.85-.93-1.54q3.81-2.91,7.64-5.8c.92-.71,1.85.84.93,1.54Z" style="fill:#fff"></path></g><rect x="109.17" y="308.32" width="1.31" height="49.44" transform="translate(376.41 560.89) rotate(148.77)" style="fill:#263238"></rect><path d="M90.53,310c4.51-2.74,6.7.23,7.8,1.91,2.33,3.55,8.8,14.51,8.8,14.51l-1.89,1.14-7.55-12.44c-4.83,3.63-10.08,5.29-12,2.11S86,312.77,90.53,310Z" style="fill:#263238"></path><path d="M90.53,310c4.51-2.74,6.7.23,7.8,1.91,2.33,3.55,8.8,14.51,8.8,14.51l-1.89,1.14-7.55-12.44c-4.83,3.63-10.08,5.29-12,2.11S86,312.77,90.53,310Z" style="fill:#fff;opacity:0.4"></path><rect x="115.42" y="309.66" width="1.31" height="49.44" transform="translate(-156.54 108.63) rotate(-31.23)" style="fill:#263238"></rect><path d="M104.6,306.64c-4.51,2.74-2.89,6.05-1.91,7.8,2.07,3.7,8.8,14.51,8.8,14.51l1.89-1.15-7.55-12.44c5.45-2.61,9.35-6.5,7.42-9.67S109.11,303.91,104.6,306.64Z" style="fill:#263238"></path><path d="M104.6,306.64c-4.51,2.74-2.89,6.05-1.91,7.8,2.07,3.7,8.8,14.51,8.8,14.51l1.89-1.15-7.55-12.44c5.45-2.61,9.35-6.5,7.42-9.67S109.11,303.91,104.6,306.64Z" style="fill:#fff;opacity:0.4"></path><polygon points="100.94 326.98 117.65 354.54 116.74 355.09 100.06 327.57 100.94 326.98" style="fill:#263238"></polygon><path d="M86.72,323.45l3.22-1.95c1.79-1.08,5.24-.46,7.07,0a2.89,2.89,0,0,1,1.79,1.32c2.11,3.49,5.17,8.63,5.17,8.63l-1.53.92-4.8-7.92a25.37,25.37,0,0,0-5.18,2l-2.87,1.74a1.85,1.85,0,0,1-2.54-.62l-1-1.57A1.85,1.85,0,0,1,86.72,323.45Z" style="fill:#263238"></path><path d="M86.72,323.45l3.22-1.95c1.79-1.08,5.24-.46,7.07,0a2.89,2.89,0,0,1,1.79,1.32c2.11,3.49,5.17,8.63,5.17,8.63l-1.53.92-4.8-7.92a25.37,25.37,0,0,0-5.18,2l-2.87,1.74a1.85,1.85,0,0,1-2.54-.62l-1-1.57A1.85,1.85,0,0,1,86.72,323.45Z" style="fill:#fff;opacity:0.4"></path><g style="opacity:0.30000000000000004"><path d="M95.75,323l-5.46.55c-.47.05-.48-.68,0-.73l5.46-.55c.47,0,.48.69,0,.73Z" style="fill:#fff"></path></g><g style="opacity:0.30000000000000004"><path d="M93,324.69l-5.47.55c-.47.05-.48-.68,0-.73L93,324c.47,0,.48.69,0,.73Z" style="fill:#fff"></path></g><g style="opacity:0.30000000000000004"><path d="M90.28,326.32l-2,.2c-.46.05-.47-.68,0-.73l2-.2c.47,0,.48.68,0,.73Z" style="fill:#fff"></path></g><rect x="102.6" y="332.87" width="21.23" height="8.43" rx="1.65" transform="translate(384.79 566.63) rotate(148.77)" style="fill:#FFFFFF"></rect><g style="opacity:0.5"><path d="M105.29,344.49l-.68-1.13,18.15-11,.68,1.13a.53.53,0,0,1,.08.17l-18.11,11Z" style="fill:#fff"></path><path d="M103.56,341.62l-.57-.93a2.64,2.64,0,0,1-.18-.38l18.08-11a2.85,2.85,0,0,1,.25.33l.56.94Z" style="fill:#fff"></path></g></g><g id="freepik--golf-ball--inject-34"><path d="M379.13,345.44a6,6,0,1,1,0-8.55A6,6,0,0,1,379.13,345.44Z" style="fill:#263238"></path><path d="M379.13,345.44a6,6,0,1,1,0-8.55A6,6,0,0,1,379.13,345.44Z" style="fill:#fff;opacity:0.7000000000000001"></path><path d="M380.82,342.12a6.48,6.48,0,0,1-12-.74,6,6,0,0,0,12,.74Z" style="opacity:0.1"></path><g style="opacity:0.2"><path d="M374.73,345.7a.6.6,0,0,1,.85.85.61.61,0,0,1-.85,0A.59.59,0,0,1,374.73,345.7Z"></path><path d="M373,344a.62.62,0,0,1,.86,0,.61.61,0,0,1,0,.85.6.6,0,0,1-.86,0A.61.61,0,0,1,373,344Z"></path><path d="M371.32,342.29a.6.6,0,0,1,.85.85.61.61,0,0,1-.85,0A.59.59,0,0,1,371.32,342.29Z"></path><path d="M369.61,340.58a.62.62,0,0,1,.86,0,.61.61,0,0,1,0,.85.6.6,0,0,1-.86,0A.61.61,0,0,1,369.61,340.58Z"></path><path d="M377.28,344.84a.61.61,0,1,1,0,.86A.62.62,0,0,1,377.28,344.84Z"></path><path d="M375.58,343.14a.6.6,0,1,1,0,.85A.59.59,0,0,1,375.58,343.14Z"></path><circle cx="374.3" cy="341.86" r="0.6"></circle><path d="M372.17,339.73a.6.6,0,1,1,0,.85A.61.61,0,0,1,372.17,339.73Z"></path><path d="M370.47,338a.59.59,0,0,1,.85,0,.6.6,0,0,1-.85.85A.59.59,0,0,1,370.47,338Z"></path><path d="M378.14,342.29a.59.59,0,0,1,.85,0,.6.6,0,1,1-.85.85A.59.59,0,0,1,378.14,342.29Z"></path><path d="M376.43,340.58a.61.61,0,0,1,.85,0,.6.6,0,1,1-.85.85A.61.61,0,0,1,376.43,340.58Z"></path><path d="M374.73,338.88a.6.6,0,1,1,0,.85A.59.59,0,0,1,374.73,338.88Z"></path><path d="M373,337.17a.61.61,0,1,1,0,.86A.62.62,0,0,1,373,337.17Z"></path><path d="M379,339.73a.6.6,0,1,1,0,.85A.59.59,0,0,1,379,339.73Z"></path><path d="M377.28,338a.6.6,0,0,1,.86,0,.61.61,0,0,1,0,.85.62.62,0,0,1-.86,0A.61.61,0,0,1,377.28,338Z"></path><path d="M375.58,336.32a.6.6,0,1,1,0,.85A.59.59,0,0,1,375.58,336.32Z"></path></g><path d="M351.61,398l-9.18-9.19-.16.15c1.49,2.72.58,6.76-2.38,9.73l-6,6a1.36,1.36,0,0,0,1.93,1.93l6-6c2.92-2.92,6.9-3.84,9.61-2.44Z" style="fill:#FFFFFF"></path><path d="M306.88,388.36c-.65,0-1.31,0-2,0a.66.66,0,0,0,0,1.31c.65,0,1.31,0,2,0a.66.66,0,0,0,0-1.31Z" style="fill:#FFFFFF"></path><path d="M357.05,365.59a71.9,71.9,0,0,1-47.44,22.65c-.84.06-.84,1.37,0,1.31a73.24,73.24,0,0,0,48.36-23c.58-.61-.34-1.54-.92-.93Z" style="fill:#FFFFFF"></path></g><g id="freepik--Character--inject-34"><path d="M263.87,204l7.42,5.13s28.68,3.15,30,4.78,4.68,3.88,4.75,5.75c0,1.14-1.71,3.06-2.63,3.75-1.27.94-4.48,2.39-6,2-1-.27-2-2.26-2.63-3.09s-2.37-4.08-2.37-4.08-23.71.6-27.39-1.82a77.76,77.76,0,0,1-7.94-6.31Z" style="fill:#7f3e3b"></path><path d="M306.09,219.64c-.07-1.87-3.37-4.13-4.75-5.75-.35-.42-2.77-.78-6.15-1.08L281.5,217c7.58-.44,11,1.17,11,1.17s1.69,3.12,2.37,4.08,1.65,2.82,2.63,3.09c1.51.43,4.72-1,6-2C304.38,222.7,306.13,220.78,306.09,219.64Z" style="opacity:0.2"></path><path d="M246.07,197.43c2.51-2.13,8.3-4.49,15.05.68a67.39,67.39,0,0,1,5.23,4.36,4.39,4.39,0,0,1,.46,5.88l-3.08,4a4.41,4.41,0,0,1-6.18.83C252.11,209,240.9,201.81,246.07,197.43Z" style="fill:#FFFFFF"></path><path d="M266,204.32l5.32,3.62s-3.58,3.33-7.75,7.83l-4.67-4Z" style="fill:#FFFFFF"></path><g style="opacity:0.5"><path d="M246.07,197.43c2.51-2.13,8.3-4.49,15.05.68a67.39,67.39,0,0,1,5.23,4.36,4.39,4.39,0,0,1,.46,5.88l-3.08,4a4.41,4.41,0,0,1-6.18.83C252.11,209,240.9,201.81,246.07,197.43Z" style="fill:#fff"></path><path d="M266,204.32l5.32,3.62s-3.58,3.33-7.75,7.83l-4.67-4Z" style="fill:#fff"></path></g><polygon points="265 379.73 263.62 406.23 270.25 406.23 275.51 381.98 265 379.73" style="fill:#7f3e3b"></polygon><path d="M276.37,257.44s12,42.67,10,70.33-13,68.67-13,68.67l-10.25-1.33s1.27-35.75,4.15-54.88c1-6.37,3-8.73,3.44-12.46.41-3.34-.47-5-1.51-11.74-1.89-12.15-5.67-30-12.08-34.26-3.54-2.37-8.59.89-7.34-15.39Z" style="fill:#263238"></path><path d="M264.54,273.77l-2.17,4.5-1.71,7.57c4.31,7.14,7,20.47,8.54,30.19.19,1.23.37,2.28.55,3.21a188.85,188.85,0,0,0,.47-44.14Z" style="opacity:0.5"></path><polygon points="262.33 396.23 273.75 397.91 275.51 394.93 261.56 392.74 262.33 396.23" style="fill:#263238"></polygon><polygon points="262.33 396.23 273.75 397.91 275.51 394.93 261.56 392.74 262.33 396.23" style="fill:#fff;opacity:0.30000000000000004"></polygon><path d="M271.72,402l-8.35.3a.77.77,0,0,0-.74.63l-1.49,7.92a1.3,1.3,0,0,0,1,1.52l.28,0c3.48-.18,6.57-.47,10.9-.61,5.12-.17,3.84.49,9.86.37,3.62-.07,4.15-4.21,2.61-4.36-7.07-.65-9.17-2.73-12-5.16A3.13,3.13,0,0,0,271.72,402Z" style="fill:#FFFFFF"></path><path d="M271.72,402l-8.35.3a.77.77,0,0,0-.74.63l-1.49,7.92a1.3,1.3,0,0,0,1,1.52l.28,0c3.48-.18,6.57-.47,10.9-.61,5.12-.17,3.84.49,9.86.37,3.62-.07,4.15-4.21,2.61-4.36-7.07-.65-9.17-2.73-12-5.16A3.13,3.13,0,0,0,271.72,402Z" style="fill:#fff;opacity:0.5"></path><polygon points="211.62 382.48 197.62 395.86 193.87 390.57 206.75 373.82 211.62 382.48" style="fill:#7f3e3b"></polygon><path d="M270.71,260.75s-.67,61.36-12,76.69-51.34,50.67-51.34,50.67l-6.66-7.34s17.85-26.18,31.18-40.8c5-5.52,9.62-8.56,11.48-11.2,2.08-2.93,1.63-6.36,2.13-14.34.63-10,1.08-22.52-.13-28.32-1-4.68-4-8.67-4-18.67Z" style="fill:#263238"></path><polygon points="199.37 380.73 207.12 389.3 210.37 388.11 201 377.55 199.37 380.73" style="fill:#263238"></polygon><polygon points="199.37 380.73 207.12 389.3 210.37 388.11 201 377.55 199.37 380.73" style="fill:#fff;opacity:0.30000000000000004"></polygon><path d="M200.61,393.58,197,386a.77.77,0,0,0-.87-.43l-7.86,1.76a1.29,1.29,0,0,0-1,1.53,1.14,1.14,0,0,0,.09.26c1.53,3.13,3,5.86,4.86,9.78,2.17,4.64,1.07,3.72,3.55,9.2,1.5,3.31,5.51,2.16,5,.68-2.19-6.75-1.11-9.5,0-13A3.16,3.16,0,0,0,200.61,393.58Z" style="fill:#FFFFFF"></path><path d="M200.61,393.58,197,386a.77.77,0,0,0-.87-.43l-7.86,1.76a1.29,1.29,0,0,0-1,1.53,1.14,1.14,0,0,0,.09.26c1.53,3.13,3,5.86,4.86,9.78,2.17,4.64,1.07,3.72,3.55,9.2,1.5,3.31,5.51,2.16,5,.68-2.19-6.75-1.11-9.5,0-13A3.16,3.16,0,0,0,200.61,393.58Z" style="fill:#fff;opacity:0.5"></path><path d="M225,222.11c1,13.33,8.33,18.33,16,51,0,0,17,1,38.67-11,0,0-4.84-14.31-8.69-29.58-4-15.83-7.14-32.7-15.65-35.76C242.37,192.11,224.24,211.91,225,222.11Z" style="fill:#FFFFFF"></path><path d="M387.78,173.05s-5.17-16.66,4.17-17,5.66,13.84-1.67,18.34L285.45,232.05l-2.5-3.83Z" style="fill:#263238"></path><path d="M387.78,173.05s-5.17-16.66,4.17-17,5.66,13.84-1.67,18.34L285.45,232.05l-2.5-3.83Z" style="fill:#fff;opacity:0.5"></path><path d="M396.6,158.07c-.87-1.31-2.37-2.1-4.65-2-9.34.34-4.17,17-4.17,17S385.75,153.24,396.6,158.07Z" style="opacity:0.30000000000000004"></path><path d="M250.92,235.44a97.77,97.77,0,0,0,21.05.77c-.32-1.22-.64-2.45-1-3.68-.51-2.05-1-4.11-1.51-6.16L241,222.11h-9.83l-2.93,3.79S230.37,236.5,250.92,235.44Z" style="opacity:0.1"></path><path d="M231.81,204.55l-.85,3.71s7.52,4.65,13.78,0v-3.71l3.42.73s3.44-9.74-2.68-9.21Z" style="fill:#FFFFFF"></path><path d="M231.81,204.55l-.85,3.71s7.52,4.65,13.78,0v-3.71l3.42.73s3.44-9.74-2.68-9.21Z" style="fill:#fff;opacity:0.5"></path><path d="M244.74,197.58l-4.32,3.68-5.73,1.93-.46-.14-1.8,1.12c.74,1.26,2.35,2.72,5.85,2.72C245.15,206.89,247,199.23,244.74,197.58Z" style="opacity:0.1"></path><path d="M221.56,194.63c4.3,6.32,6.48,9.25,11.79,10.62,8,2.06,14.26-4.82,11.94-12.32-2.09-6.75-8.76-16-16.71-14.7a10.54,10.54,0,0,0-8.76,12.05A10.72,10.72,0,0,0,221.56,194.63Z" style="fill:#7f3e3b"></path><path d="M224.94,186.73a64.76,64.76,0,0,1,2.43,7.67c.62,2.28,5.3,5.91,5.3,5.91l-4.7,2-8.28-7.38Z" style="fill:#263238"></path><path d="M233.42,191.83c.36.52.91.73,1.25.49s.29-.84-.06-1.35-.92-.72-1.2-.48A1,1,0,0,0,233.42,191.83Z" style="fill:#263238"></path><path d="M239.44,187.47c.36.51.92.72,1.25.49s.3-.84-.06-1.35-.91-.73-1.24-.48S239.1,187,239.44,187.47Z" style="fill:#263238"></path><path d="M237.89,189.39a20,20,0,0,0,5.17,2,3.29,3.29,0,0,1-1.76,2.14Z" style="fill:#630f0f"></path><path d="M230.41,189.14a.28.28,0,0,1-.17-.07.35.35,0,0,1-.12-.49h0A3.69,3.69,0,0,1,233,186.8a.37.37,0,1,1,0,.73h0a3,3,0,0,0-2.2,1.44A.37.37,0,0,1,230.41,189.14Z" style="fill:#263238"></path><path d="M239.48,182.11a.37.37,0,0,1-.2.27,2.86,2.86,0,0,0-1.65,2.05.38.38,0,0,1-.4.34.37.37,0,0,1-.33-.39,3.55,3.55,0,0,1,2-2.61.35.35,0,0,1,.48.17h0A.47.47,0,0,1,239.48,182.11Z" style="fill:#263238"></path><path d="M246.32,220s8.43,3.89,22,2.49,20.79-5.66,29.83-8.79c2.33-.81,7.54-2.61,9.84-1.72,1.91.73,4.82,3,4.68,5-.08,1.25-2.78,2.57-3.9,3.13-1.41.7-3.59,1.76-5.15,1.57s-3.91-2.2-3.91-2.2-19.24,11.3-30.47,13.09S243,230.29,243,230.29Z" style="fill:#7f3e3b"></path><path d="M248.93,219.12l6.28,1.33s.67,7.06-1.83,12.23l-6.83-.39Z" style="fill:#FFFFFF"></path><path d="M248.93,219.12l6.28,1.33s.67,7.06-1.83,12.23l-6.83-.39Z" style="fill:#fff;opacity:0.5"></path><path d="M252.05,221.64a4.37,4.37,0,0,0-2.42-4.41c-6-2.77-19.82-8.29-21.76-.94-2.33,8.85,1,17.18,19.33,17a4.2,4.2,0,0,0,4.05-3.86Z" style="fill:#FFFFFF"></path><path d="M252.05,221.64a4.37,4.37,0,0,0-2.42-4.41c-6-2.77-19.82-8.29-21.76-.94-2.33,8.85,1,17.18,19.33,17a4.2,4.2,0,0,0,4.05-3.86Z" style="fill:#fff;opacity:0.5"></path><path d="M217.71,182.16c.51.14.65,1.2.32,2.37s-1,2-1.5,1.85-.65-1.2-.32-2.37S217.21,182,217.71,182.16Z" style="fill:#FFFFFF"></path><path d="M217.71,182.16c.51.14.65,1.2.32,2.37s-1,2-1.5,1.85-.65-1.2-.32-2.37S217.21,182,217.71,182.16Z" style="opacity:0.30000000000000004"></path><path d="M236.82,176.88s3.36-3.21-.49-3.14-14.12,1.89-17.73,7.38-2.11,16,3.77,16.06c0,0,2.95-9.39,7.4-13.79S236.82,176.88,236.82,176.88Z" style="fill:#FFFFFF"></path><path d="M217.66,188.1a8.65,8.65,0,0,0,4.68,9.07h0s2.72-8.64,6.86-13.22C225.44,183.38,218.35,183,217.66,188.1Z" style="fill:#fff;opacity:0.30000000000000004"></path><path d="M222.37,197.18s2.9-7,6.28-11.2,6.59-5.45,6.59-5.45,6-4.35,4.78-5.53-11.3,6.35-13.57,11.1A83,83,0,0,0,222.37,197.18Z" style="fill:#FFFFFF"></path><path d="M222.37,197.18s2.9-7,6.28-11.2,6.59-5.45,6.59-5.45,6-4.35,4.78-5.53-11.3,6.35-13.57,11.1A83,83,0,0,0,222.37,197.18Z" style="opacity:0.30000000000000004"></path><path d="M223.73,202.81a6.15,6.15,0,0,0,4.68.77c2.13-.51,2.15-2.68.68-4.13-1.32-1.31-4-2.63-5.73-1.34A2.81,2.81,0,0,0,223.73,202.81Z" style="fill:#7f3e3b"></path><path d="M242,196.87a5.1,5.1,0,0,0,.84-.49.17.17,0,0,0,0-.23h0a.19.19,0,0,0-.25,0,5,5,0,0,1-4.22.68.16.16,0,0,0-.2.12h0a.17.17,0,0,0,.12.21h0A5.1,5.1,0,0,0,242,196.87Z" style="fill:#263238"></path></g></svg>